<svg width="78" height="80" viewBox="0 0 78 80" fill="none" xmlns="http://www.w3.org/2000/svg">
<g filter="url(#filter0_i_881_240)">
<ellipse cx="39.0123" cy="40" rx="38.4615" ry="40" fill="#C9C9C9"/>
</g>
<g filter="url(#filter1_i_881_240)">
<ellipse cx="39.509" cy="36" rx="26.9231" ry="28" fill="#C9C9C9"/>
</g>
<path d="M30.6426 49L30.6786 45.148L37.2306 39.136C37.9506 38.488 38.5506 37.9 39.0306 37.372C39.5346 36.82 39.9186 36.304 40.1826 35.824C40.4466 35.344 40.5786 34.852 40.5786 34.348C40.5786 33.7 40.4106 33.184 40.0746 32.8C39.7626 32.392 39.2586 32.188 38.5626 32.188C37.7466 32.188 37.1226 32.488 36.6906 33.088C36.2826 33.664 36.0786 34.336 36.0786 35.104C36.0786 35.392 36.0906 35.692 36.1146 36.004C36.1626 36.316 36.2226 36.64 36.2946 36.976H30.8226C30.7266 36.592 30.6426 36.196 30.5706 35.788C30.4986 35.38 30.4626 34.96 30.4626 34.528C30.4626 33.304 30.7626 32.176 31.3626 31.144C31.9626 30.088 32.8866 29.248 34.1346 28.624C35.3826 27.976 36.9786 27.652 38.9226 27.652C41.4426 27.652 43.3986 28.192 44.7906 29.272C46.2066 30.352 46.9146 31.804 46.9146 33.628C46.9146 34.588 46.7106 35.5 46.3026 36.364C45.8946 37.228 45.2466 38.14 44.3586 39.1C43.4706 40.036 42.3066 41.116 40.8666 42.34L36.5106 46.336L35.6106 44.932H43.3146V41.98H47.1306V49H30.6426Z" fill="#535353"/>
<defs>
<filter id="filter0_i_881_240" x="0.550781" y="0" width="76.9229" height="80" filterUnits="userSpaceOnUse" color-interpolation-filters="sRGB">
<feFlood flood-opacity="0" result="BackgroundImageFix"/>
<feBlend mode="normal" in="SourceGraphic" in2="BackgroundImageFix" result="shape"/>
<feColorMatrix in="SourceAlpha" type="matrix" values="0 0 0 0 0 0 0 0 0 0 0 0 0 0 0 0 0 0 127 0" result="hardAlpha"/>
<feOffset dy="-8"/>
<feComposite in2="hardAlpha" operator="arithmetic" k2="-1" k3="1"/>
<feColorMatrix type="matrix" values="0 0 0 0 0 0 0 0 0 0 0 0 0 0 0 0 0 0 0.25 0"/>
<feBlend mode="normal" in2="shape" result="effect1_innerShadow_881_240"/>
</filter>
<filter id="filter1_i_881_240" x="12.5859" y="8" width="53.8462" height="56" filterUnits="userSpaceOnUse" color-interpolation-filters="sRGB">
<feFlood flood-opacity="0" result="BackgroundImageFix"/>
<feBlend mode="normal" in="SourceGraphic" in2="BackgroundImageFix" result="shape"/>
<feColorMatrix in="SourceAlpha" type="matrix" values="0 0 0 0 0 0 0 0 0 0 0 0 0 0 0 0 0 0 127 0" result="hardAlpha"/>
<feOffset dy="8"/>
<feComposite in2="hardAlpha" operator="arithmetic" k2="-1" k3="1"/>
<feColorMatrix type="matrix" values="0 0 0 0 0 0 0 0 0 0 0 0 0 0 0 0 0 0 0.25 0"/>
<feBlend mode="normal" in2="shape" result="effect1_innerShadow_881_240"/>
</filter>
</defs>
</svg>
