<svg width="78" height="80" viewBox="0 0 78 80" fill="none" xmlns="http://www.w3.org/2000/svg">
<g filter="url(#filter0_i_881_698)">
<ellipse cx="39.0123" cy="40" rx="38.4615" ry="40" fill="#C96933"/>
</g>
<g filter="url(#filter1_i_881_698)">
<ellipse cx="39.509" cy="36" rx="26.9231" ry="28" fill="#C96933"/>
</g>
<path d="M39.0557 49.396C36.4637 49.396 34.4117 48.868 32.8997 47.812C31.3877 46.732 30.3557 45.244 29.8037 43.348L34.9517 41.368C35.2157 42.544 35.6837 43.408 36.3557 43.96C37.0517 44.488 37.7837 44.752 38.5517 44.752C39.2477 44.752 39.8237 44.572 40.2797 44.212C40.7597 43.828 40.9997 43.3 40.9997 42.628C40.9997 41.836 40.7237 41.224 40.1717 40.792C39.6197 40.336 38.7557 40.108 37.5797 40.108V36.76C38.5877 36.76 39.3677 36.532 39.9197 36.076C40.4957 35.62 40.7837 34.996 40.7837 34.204C40.7837 33.58 40.6037 33.076 40.2437 32.692C39.9077 32.308 39.4037 32.116 38.7317 32.116C37.9157 32.116 37.2677 32.404 36.7877 32.98C36.3077 33.532 36.0077 34.3 35.8877 35.284L30.5237 33.556C30.7637 32.188 31.2917 31.072 32.1077 30.208C32.9237 29.344 33.9557 28.708 35.2037 28.3C36.4757 27.868 37.8677 27.652 39.3797 27.652C41.9477 27.652 43.8797 28.204 45.1757 29.308C46.4717 30.412 47.1197 31.78 47.1197 33.412C47.1197 34.372 46.9157 35.212 46.5077 35.932C46.0997 36.628 45.5237 37.204 44.7797 37.66C44.0597 38.116 43.2317 38.44 42.2957 38.632V37.84C43.7837 38.08 45.0437 38.632 46.0757 39.496C47.1077 40.336 47.6237 41.572 47.6237 43.204C47.6237 44.5 47.2517 45.616 46.5077 46.552C45.7877 47.464 44.7797 48.172 43.4837 48.676C42.2117 49.156 40.7357 49.396 39.0557 49.396Z" fill="#6F311D"/>
<defs>
<filter id="filter0_i_881_698" x="0.550781" y="0" width="76.9229" height="80" filterUnits="userSpaceOnUse" color-interpolation-filters="sRGB">
<feFlood flood-opacity="0" result="BackgroundImageFix"/>
<feBlend mode="normal" in="SourceGraphic" in2="BackgroundImageFix" result="shape"/>
<feColorMatrix in="SourceAlpha" type="matrix" values="0 0 0 0 0 0 0 0 0 0 0 0 0 0 0 0 0 0 127 0" result="hardAlpha"/>
<feOffset dy="-8"/>
<feComposite in2="hardAlpha" operator="arithmetic" k2="-1" k3="1"/>
<feColorMatrix type="matrix" values="0 0 0 0 0 0 0 0 0 0 0 0 0 0 0 0 0 0 0.25 0"/>
<feBlend mode="normal" in2="shape" result="effect1_innerShadow_881_698"/>
</filter>
<filter id="filter1_i_881_698" x="12.5859" y="8" width="53.8462" height="56" filterUnits="userSpaceOnUse" color-interpolation-filters="sRGB">
<feFlood flood-opacity="0" result="BackgroundImageFix"/>
<feBlend mode="normal" in="SourceGraphic" in2="BackgroundImageFix" result="shape"/>
<feColorMatrix in="SourceAlpha" type="matrix" values="0 0 0 0 0 0 0 0 0 0 0 0 0 0 0 0 0 0 127 0" result="hardAlpha"/>
<feOffset dy="8"/>
<feComposite in2="hardAlpha" operator="arithmetic" k2="-1" k3="1"/>
<feColorMatrix type="matrix" values="0 0 0 0 0 0 0 0 0 0 0 0 0 0 0 0 0 0 0.25 0"/>
<feBlend mode="normal" in2="shape" result="effect1_innerShadow_881_698"/>
</filter>
</defs>
</svg>
